# Blender 4.5.2 LTS
# www.blender.org
mtllib Road.mtl
o Plane.001
v -6.778352 0.000000 3.240964
v -4.778352 0.000000 3.240964
v -6.778352 0.000000 1.907736
v -4.778352 0.000000 1.907736
v -6.778352 0.308924 3.240964
v -4.778352 0.308924 3.240964
v -6.778352 0.308924 2.022058
v -6.778352 0.194601 1.907736
v -4.778352 0.194601 1.907736
v -4.778352 0.308924 2.022058
v -6.778352 0.000000 3.635387
v -4.778352 0.000000 3.635387
v -6.778352 0.308924 3.635387
v -4.778352 0.308924 3.635387
v -8.464453 0.000000 1.907736
v -8.464453 0.000000 3.240964
v -8.464453 0.308924 3.240964
v -8.464453 0.194601 1.907736
v -8.464453 0.308924 2.022058
v -8.464453 0.308924 3.635387
v -8.464453 0.000000 3.635387
v -8.572950 0.000000 1.907736
v -8.572950 0.000000 3.240964
v -8.572950 0.308924 3.240964
v -8.572950 0.194601 1.907736
v -8.572950 0.308924 2.022058
v -8.572950 0.308924 3.635387
v -8.572950 0.000000 3.635387
v -8.582458 -0.011754 1.909001
v -8.582458 -0.011754 3.242229
v -8.582458 0.297169 3.242229
v -8.582458 0.182847 1.909001
v -8.582458 0.297169 2.023324
v -8.582458 0.297169 3.636652
v -8.582458 -0.011754 3.636652
v -8.593069 0.000000 1.915590
v -4.761888 0.000000 1.915590
v -8.593069 0.000000 -1.915591
v -4.761888 0.000000 -1.915591
v -4.778352 0.000000 -3.244072
v -6.778352 0.000000 -3.244073
v -4.778352 0.000000 -1.910844
v -6.778352 0.000000 -1.910845
v -4.778352 0.308924 -3.244072
v -6.778352 0.308924 -3.244073
v -4.778352 0.308924 -2.025166
v -4.778352 0.194601 -1.910844
v -6.778352 0.194601 -1.910845
v -6.778352 0.308924 -2.025167
v -4.778352 0.000000 -3.638495
v -6.778352 0.000000 -3.638496
v -4.778352 0.308924 -3.638495
v -6.778352 0.308924 -3.638496
v -8.464453 0.000000 -3.244073
v -8.464454 0.000000 -1.910845
v -8.464453 0.308924 -3.244073
v -8.464454 0.308924 -2.025167
v -8.464454 0.194601 -1.910845
v -8.464453 0.000000 -3.638496
v -8.464453 0.308924 -3.638496
v -8.572950 0.000000 -3.244073
v -8.572950 0.000000 -1.910845
v -8.572950 0.308924 -3.244073
v -8.572950 0.308924 -2.025167
v -8.572950 0.194601 -1.910845
v -8.572950 0.000000 -3.638496
v -8.572950 0.308924 -3.638496
v -8.582458 -0.011754 -3.242808
v -8.582458 -0.011754 -1.909579
v -8.582458 0.297169 -3.242808
v -8.582458 0.297169 -2.023901
v -8.582458 0.182847 -1.909579
v -8.582458 -0.011754 -3.637230
v -8.582458 0.297169 -3.637230
v -2.947171 0.000000 3.240964
v -0.947171 0.000000 3.240964
v -2.947171 0.000000 1.907736
v -0.947171 0.000000 1.907736
v -2.947171 0.308924 3.240964
v -0.947171 0.308924 3.240964
v -2.947171 0.308924 2.022058
v -2.947171 0.194601 1.907736
v -0.947171 0.194601 1.907736
v -0.947171 0.308924 2.022058
v -2.947171 0.000000 3.635387
v -0.947171 0.000000 3.635387
v -2.947171 0.308924 3.635387
v -0.947171 0.308924 3.635387
v -4.633272 0.000000 1.907736
v -4.633272 0.000000 3.240964
v -4.633272 0.308924 3.240964
v -4.633272 0.194601 1.907736
v -4.633272 0.308924 2.022058
v -4.633272 0.308924 3.635387
v -4.633272 0.000000 3.635387
v -4.741770 0.000000 1.907736
v -4.741770 0.000000 3.240964
v -4.741770 0.308924 3.240964
v -4.741770 0.194601 1.907736
v -4.741770 0.308924 2.022058
v -4.741770 0.308924 3.635387
v -4.741770 0.000000 3.635387
v -4.751278 -0.011754 1.909001
v -4.751278 -0.011754 3.242229
v -4.751278 0.297169 3.242229
v -4.751278 0.182847 1.909001
v -4.751278 0.297169 2.023324
v -4.751278 0.297169 3.636652
v -4.751278 -0.011754 3.636652
v -4.761888 0.000000 1.915590
v -0.930707 0.000000 1.915590
v -4.761888 0.000000 -1.915591
v -0.930707 0.000000 -1.915591
v -0.947171 0.000000 -3.244072
v -2.947171 0.000000 -3.244073
v -0.947171 0.000000 -1.910844
v -2.947171 0.000000 -1.910845
v -0.947171 0.308924 -3.244072
v -2.947171 0.308924 -3.244073
v -0.947171 0.308924 -2.025166
v -0.947171 0.194601 -1.910844
v -2.947171 0.194601 -1.910845
v -2.947171 0.308924 -2.025167
v -0.947171 0.000000 -3.638495
v -2.947171 0.000000 -3.638496
v -0.947171 0.308924 -3.638495
v -2.947171 0.308924 -3.638496
v -4.633272 0.000000 -3.244073
v -4.633273 0.000000 -1.910845
v -4.633272 0.308924 -3.244073
v -4.633273 0.308924 -2.025167
v -4.633273 0.194601 -1.910845
v -4.633272 0.000000 -3.638496
v -4.633272 0.308924 -3.638496
v -4.741770 0.000000 -3.244073
v -4.741770 0.000000 -1.910845
v -4.741770 0.308924 -3.244073
v -4.741770 0.308924 -2.025167
v -4.741770 0.194601 -1.910845
v -4.741769 0.000000 -3.638496
v -4.741769 0.308924 -3.638496
v -4.751278 -0.011754 -3.242808
v -4.751278 -0.011754 -1.909579
v -4.751278 0.297169 -3.242808
v -4.751278 0.297169 -2.023901
v -4.751278 0.182847 -1.909579
v -4.751278 -0.011754 -3.637230
v -4.751278 0.297169 -3.637230
v 0.884010 0.000000 3.240964
v 2.884009 0.000000 3.240964
v 0.884010 0.000000 1.907736
v 2.884009 0.000000 1.907736
v 0.884010 0.308924 3.240964
v 2.884009 0.308924 3.240964
v 0.884010 0.308924 2.022058
v 0.884010 0.194601 1.907736
v 2.884009 0.194601 1.907736
v 2.884009 0.308924 2.022058
v 0.884010 0.000000 3.635387
v 2.884009 0.000000 3.635387
v 0.884010 0.308924 3.635387
v 2.884009 0.308924 3.635387
v -0.802092 0.000000 1.907736
v -0.802092 0.000000 3.240964
v -0.802092 0.308924 3.240964
v -0.802092 0.194601 1.907736
v -0.802092 0.308924 2.022058
v -0.802092 0.308924 3.635387
v -0.802092 0.000000 3.635387
v -0.910589 0.000000 1.907736
v -0.910589 0.000000 3.240964
v -0.910589 0.308924 3.240964
v -0.910589 0.194601 1.907736
v -0.910589 0.308924 2.022058
v -0.910589 0.308924 3.635387
v -0.910589 0.000000 3.635387
v -0.920097 -0.011754 1.909001
v -0.920097 -0.011754 3.242229
v -0.920097 0.297169 3.242229
v -0.920097 0.182847 1.909001
v -0.920097 0.297169 2.023324
v -0.920097 0.297169 3.636652
v -0.920097 -0.011754 3.636652
v -0.930707 0.000000 1.915590
v 2.900474 0.000000 1.915590
v -0.930707 0.000000 -1.915591
v 2.900474 0.000000 -1.915591
v 2.884010 0.000000 -3.244072
v 0.884010 0.000000 -3.244073
v 2.884009 0.000000 -1.910844
v 0.884009 0.000000 -1.910845
v 2.884010 0.308924 -3.244072
v 0.884010 0.308924 -3.244073
v 2.884009 0.308924 -2.025166
v 2.884009 0.194601 -1.910844
v 0.884009 0.194601 -1.910845
v 0.884009 0.308924 -2.025167
v 2.884010 0.000000 -3.638495
v 0.884010 0.000000 -3.638496
v 2.884010 0.308924 -3.638495
v 0.884010 0.308924 -3.638496
v -0.802092 0.000000 -3.244073
v -0.802092 0.000000 -1.910845
v -0.802092 0.308924 -3.244073
v -0.802092 0.308924 -2.025167
v -0.802092 0.194601 -1.910845
v -0.802092 0.000000 -3.638496
v -0.802092 0.308924 -3.638496
v -0.910589 0.000000 -3.244073
v -0.910589 0.000000 -1.910845
v -0.910589 0.308924 -3.244073
v -0.910589 0.308924 -2.025167
v -0.910589 0.194601 -1.910845
v -0.910588 0.000000 -3.638496
v -0.910588 0.308924 -3.638496
v -0.920097 -0.011754 -3.242808
v -0.920097 -0.011754 -1.909579
v -0.920097 0.297169 -3.242808
v -0.920097 0.297169 -2.023901
v -0.920097 0.182847 -1.909579
v -0.920097 -0.011754 -3.637230
v -0.920097 0.297169 -3.637230
v 4.715191 0.000000 3.240964
v 6.715191 0.000000 3.240964
v 4.715191 0.000000 1.907736
v 6.715191 0.000000 1.907736
v 4.715191 0.308924 3.240964
v 6.715191 0.308924 3.240964
v 4.715191 0.308924 2.022058
v 4.715191 0.194601 1.907736
v 6.715191 0.194601 1.907736
v 6.715191 0.308924 2.022058
v 4.715191 0.000000 3.635387
v 6.715191 0.000000 3.635387
v 4.715191 0.308924 3.635387
v 6.715191 0.308924 3.635387
v 3.029090 0.000000 1.907736
v 3.029090 0.000000 3.240964
v 3.029090 0.308924 3.240964
v 3.029090 0.194601 1.907736
v 3.029090 0.308924 2.022058
v 3.029090 0.308924 3.635387
v 3.029090 0.000000 3.635387
v 2.920592 0.000000 1.907736
v 2.920592 0.000000 3.240964
v 2.920592 0.308924 3.240964
v 2.920592 0.194601 1.907736
v 2.920592 0.308924 2.022058
v 2.920592 0.308924 3.635387
v 2.920592 0.000000 3.635387
v 2.911084 -0.011754 1.909001
v 2.911084 -0.011754 3.242229
v 2.911084 0.297169 3.242229
v 2.911084 0.182847 1.909001
v 2.911084 0.297169 2.023324
v 2.911084 0.297169 3.636652
v 2.911084 -0.011754 3.636652
v 2.900474 0.000000 1.915590
v 6.731655 0.000000 1.915590
v 2.900474 0.000000 -1.915591
v 6.731655 0.000000 -1.915591
v 6.715191 0.000000 -3.244072
v 4.715191 0.000000 -3.244073
v 6.715191 0.000000 -1.910844
v 4.715191 0.000000 -1.910845
v 6.715191 0.308924 -3.244072
v 4.715191 0.308924 -3.244073
v 6.715191 0.308924 -2.025166
v 6.715191 0.194601 -1.910844
v 4.715191 0.194601 -1.910845
v 4.715191 0.308924 -2.025167
v 6.715191 0.000000 -3.638495
v 4.715191 0.000000 -3.638496
v 6.715191 0.308924 -3.638495
v 4.715191 0.308924 -3.638496
v 3.029090 0.000000 -3.244073
v 3.029089 0.000000 -1.910845
v 3.029090 0.308924 -3.244073
v 3.029089 0.308924 -2.025167
v 3.029089 0.194601 -1.910845
v 3.029090 0.000000 -3.638496
v 3.029090 0.308924 -3.638496
v 2.920592 0.000000 -3.244073
v 2.920592 0.000000 -1.910845
v 2.920592 0.308924 -3.244073
v 2.920592 0.308924 -2.025167
v 2.920592 0.194601 -1.910845
v 2.920592 0.000000 -3.638496
v 2.920592 0.308924 -3.638496
v 2.911084 -0.011754 -3.242808
v 2.911084 -0.011754 -1.909579
v 2.911084 0.297169 -3.242808
v 2.911084 0.297169 -2.023901
v 2.911084 0.182847 -1.909579
v 2.911084 -0.011754 -3.637230
v 2.911084 0.297169 -3.637230
v 8.546371 0.000000 3.240964
v 10.546371 0.000000 3.240964
v 8.546371 0.000000 1.907736
v 10.546371 0.000000 1.907736
v 8.546371 0.308924 3.240964
v 10.546371 0.308924 3.240964
v 8.546371 0.308924 2.022058
v 8.546371 0.194601 1.907736
v 10.546371 0.194601 1.907736
v 10.546371 0.308924 2.022058
v 8.546371 0.000000 3.635387
v 10.546371 0.000000 3.635387
v 8.546371 0.308924 3.635387
v 10.546371 0.308924 3.635387
v 6.860271 0.000000 1.907736
v 6.860271 0.000000 3.240964
v 6.860271 0.308924 3.240964
v 6.860271 0.194601 1.907736
v 6.860271 0.308924 2.022058
v 6.860271 0.308924 3.635387
v 6.860271 0.000000 3.635387
v 6.751773 0.000000 1.907736
v 6.751773 0.000000 3.240964
v 6.751773 0.308924 3.240964
v 6.751773 0.194601 1.907736
v 6.751773 0.308924 2.022058
v 6.751773 0.308924 3.635387
v 6.751773 0.000000 3.635387
v 6.742265 -0.011754 1.909001
v 6.742265 -0.011754 3.242229
v 6.742265 0.297169 3.242229
v 6.742265 0.182847 1.909001
v 6.742265 0.297169 2.023324
v 6.742265 0.297169 3.636652
v 6.742265 -0.011754 3.636652
v 6.731654 0.000000 1.915590
v 10.562835 0.000000 1.915590
v 6.731654 0.000000 -1.915591
v 10.562835 0.000000 -1.915591
v 10.546372 0.000000 -3.244072
v 8.546371 0.000000 -3.244073
v 10.546371 0.000000 -1.910844
v 8.546371 0.000000 -1.910845
v 10.546372 0.308924 -3.244072
v 8.546371 0.308924 -3.244073
v 10.546371 0.308924 -2.025166
v 10.546371 0.194601 -1.910844
v 8.546371 0.194601 -1.910845
v 8.546371 0.308924 -2.025167
v 10.546372 0.000000 -3.638495
v 8.546371 0.000000 -3.638496
v 10.546372 0.308924 -3.638495
v 8.546371 0.308924 -3.638496
v 6.860271 0.000000 -3.244073
v 6.860270 0.000000 -1.910845
v 6.860271 0.308924 -3.244073
v 6.860270 0.308924 -2.025167
v 6.860270 0.194601 -1.910845
v 6.860271 0.000000 -3.638496
v 6.860271 0.308924 -3.638496
v 6.751773 0.000000 -3.244073
v 6.751773 0.000000 -1.910845
v 6.751773 0.308924 -3.244073
v 6.751773 0.308924 -2.025167
v 6.751773 0.194601 -1.910845
v 6.751773 0.000000 -3.638496
v 6.751773 0.308924 -3.638496
v 6.742265 -0.011754 -3.242808
v 6.742265 -0.011754 -1.909579
v 6.742265 0.297169 -3.242808
v 6.742265 0.297169 -2.023901
v 6.742265 0.182847 -1.909579
v 6.742265 -0.011754 -3.637230
v 6.742265 0.297169 -3.637230
vn -0.0000 -1.0000 -0.0000
vn -0.0000 0.7071 -0.7071
vn -0.0000 -0.0000 -1.0000
vn -0.0000 1.0000 -0.0000
vn 1.0000 -0.0000 -0.0000
vn -0.0000 -0.0000 1.0000
vn 0.7775 -0.6289 -0.0000
vn -0.6956 0.5080 -0.5080
vn -1.0000 -0.0000 -0.0000
vn -0.7775 0.6289 -0.0000
vn 0.1319 -0.0000 0.9913
vn -0.1319 -0.0000 -0.9913
vn -0.0000 0.7071 0.7071
vn -0.6150 0.5576 0.5575
vn -0.6150 0.5576 0.5576
vn -0.6150 0.5575 0.5576
vt 0.904297 0.264951
vt 0.904297 1.005633
vt 2.015408 1.005633
vt 2.015408 0.264951
vt 2.015408 0.045827
vt 0.904297 0.045827
vt 0.904297 0.942121
vt 2.015408 0.942121
vt 0.904297 0.520356
vt 0.904297 0.412244
vt -0.032426 0.412244
vt -0.032426 0.520356
vt 2.015408 0.412244
vt 2.015408 0.520356
vt 0.264951 0.412244
vt 1.005633 0.412244
vt 1.005633 0.520356
vt 0.942121 0.583868
vt 0.264951 0.583868
vt 2.015408 0.583868
vt 0.904297 0.583868
vt -0.032426 0.264951
vt -0.032426 1.005633
vt 0.045827 0.583868
vt 0.045827 0.412244
vt -0.092702 0.412244
vt -0.092702 0.520356
vt -0.032426 0.583868
vt -0.092702 0.583868
vt -0.032426 0.045827
vt -0.032426 0.942121
vt 0.264248 0.405714
vt 1.004930 0.405714
vt 1.004930 0.513826
vt 0.941418 0.577338
vt -0.092702 0.045827
vt -0.092702 0.264951
vt -0.092702 0.942121
vt -0.092702 1.005633
vt 0.264248 0.577338
vt 0.045124 0.405714
vt 0.045124 0.577338
vt -0.097985 0.577338
vt -0.097985 0.405714
vt -0.097985 0.513826
vt -0.457795 -0.457795
vt 1.457795 -0.457795
vt 1.457795 1.457795
vt -0.457795 1.457795
vt -1.015408 0.264709
vt -1.015408 1.005391
vt 0.095703 1.005391
vt 0.095703 0.264709
vt 0.095703 0.045585
vt -1.015408 0.045585
vt -1.015408 0.941879
vt 0.095703 0.941879
vt 1.005391 0.412244
vt 0.264709 0.412244
vt 0.264709 0.583868
vt 0.941879 0.583868
vt 1.005391 0.520356
vt 0.095703 0.412244
vt -1.015408 0.412244
vt -1.015408 0.520356
vt 0.095703 0.520356
vt 1.032426 0.264709
vt 1.032426 0.045585
vt 0.095703 0.583868
vt -1.015408 0.583868
vt 0.045585 0.412244
vt 0.045585 0.583868
vt 1.032426 0.520356
vt 1.032426 0.412244
vt 1.032426 1.005392
vt 1.032426 0.941879
vt 1.092702 0.941879
vt 1.092702 1.005392
vt 1.092702 0.520356
vt 1.092702 0.412244
vt 1.032426 0.583868
vt 1.097985 0.513826
vt 1.097985 0.405714
vt 0.045585 0.412244
vt 0.264709 0.412244
vt 0.265412 0.405714
vt 0.046288 0.405714
vt 1.092702 0.264709
vt 1.092702 0.045585
vt 1.092702 0.583868
vt 1.006095 0.405714
vt 1.006095 0.513826
vt 0.942582 0.577338
vt 0.265412 0.577338
vt 0.046288 0.577338
vt 1.005392 0.520356
vt 0.941879 0.583868
vt 1.005392 0.412244
vt 0.264709 0.583868
vt 0.045585 0.583868
vt 1.097985 0.577338
s 0
usemtl grey_stone_path
f 1/1/1 3/2/1 4/3/1 2/4/1
f 1/1/1 2/4/1 12/5/1 11/6/1
f 9/3/2 8/2/2 7/7/2 10/8/2
f 8/9/3 3/10/3 15/11/3 18/12/3
f 5/1/4 6/4/4 10/8/4 7/7/4
f 4/13/3 3/10/3 8/9/3 9/14/3
f 2/15/5 4/16/5 9/17/5 10/18/5 6/19/5
f 11/10/6 12/13/6 14/20/6 13/21/6
f 3/2/1 1/1/1 16/22/1 15/23/1
f 6/4/4 5/1/4 13/6/4 14/5/4
f 2/15/5 6/19/5 14/24/5 12/25/5
f 18/12/3 15/11/3 22/26/3 25/27/3
f 21/11/6 20/28/6 27/29/6 28/26/6
f 1/1/1 11/6/1 21/30/1 16/22/1
f 7/7/2 8/2/2 18/23/2 19/31/2
f 11/10/6 13/21/6 20/28/6 21/11/6
f 5/1/4 7/7/4 19/31/4 17/22/4
f 13/6/4 5/1/4 17/22/4 20/30/4
f 22/16/7 23/15/7 30/32/7 29/33/7
f 26/18/8 25/17/8 32/34/8 33/35/8
f 16/22/1 21/30/1 28/36/1 23/37/1
f 17/22/4 19/31/4 26/38/4 24/37/4
f 19/31/2 18/23/2 25/39/2 26/38/2
f 15/23/1 16/22/1 23/37/1 22/39/1
f 20/30/4 17/22/4 24/37/4 27/36/4
f 29/33/9 30/32/9 31/40/9 33/35/9 32/34/9
f 31/40/9 30/32/9 35/41/9 34/42/9
f 27/24/10 24/19/10 31/40/10 34/42/10
f 28/26/11 27/29/11 34/43/11 35/44/11
f 25/27/12 22/26/12 29/44/12 32/45/12
f 23/15/7 28/25/7 35/41/7 30/32/7
f 24/19/10 26/18/10 33/35/10 31/40/10
f 40/50/1 42/51/1 43/52/1 41/53/1
f 40/50/1 41/53/1 51/54/1 50/55/1
f 48/52/13 47/51/13 46/56/13 49/57/13
f 42/58/5 40/59/5 44/60/5 46/61/5 47/62/5
f 44/50/4 45/53/4 49/57/4 46/56/4
f 43/63/6 42/64/6 47/65/6 48/66/6
f 51/54/1 41/53/1 54/67/1 59/68/1
f 50/64/3 51/63/3 53/69/3 52/70/3
f 44/60/5 40/59/5 50/71/5 52/72/5
f 45/53/4 44/50/4 52/55/4 53/54/4
f 43/63/6 48/66/6 58/73/6 55/74/6
f 58/75/13 57/76/13 64/77/13 65/78/13
f 55/74/6 58/73/6 65/79/6 62/80/6
f 53/69/3 51/63/3 59/74/3 60/81/3
f 41/53/1 43/52/1 55/75/1 54/67/1
f 49/57/4 45/53/4 56/67/4 57/76/4
f 45/53/4 53/54/4 60/68/4 56/67/4
f 48/52/13 49/57/13 57/76/13 58/75/13
f 62/80/11 65/79/11 72/82/11 69/83/11
f 66/84/7 61/85/7 68/86/7 73/87/7
f 54/67/1 55/75/1 62/78/1 61/88/1
f 56/67/4 60/68/4 67/89/4 63/88/4
f 60/81/3 59/74/3 66/80/3 67/90/3
f 57/76/4 56/67/4 63/88/4 64/77/4
f 59/68/1 54/67/1 61/88/1 66/89/1
f 68/86/9 69/91/9 72/92/9 71/93/9 70/94/9
f 68/86/9 70/94/9 74/95/9 73/87/9
f 65/96/14 64/97/14 71/93/14 72/92/14
f 61/85/7 62/98/7 69/91/7 68/86/7
f 63/99/10 67/100/10 74/95/10 70/94/10
f 67/90/12 66/80/12 73/83/12 74/101/12
f 64/97/10 63/99/10 70/94/10 71/93/10
f 75/1/1 77/2/1 78/3/1 76/4/1
f 75/1/1 76/4/1 86/5/1 85/6/1
f 83/3/2 82/2/2 81/7/2 84/8/2
f 82/9/3 77/10/3 89/11/3 92/12/3
f 79/1/4 80/4/4 84/8/4 81/7/4
f 78/13/3 77/10/3 82/9/3 83/14/3
f 76/15/5 78/16/5 83/17/5 84/18/5 80/19/5
f 85/10/6 86/13/6 88/20/6 87/21/6
f 77/2/1 75/1/1 90/22/1 89/23/1
f 80/4/4 79/1/4 87/6/4 88/5/4
f 76/15/5 80/19/5 88/24/5 86/25/5
f 92/12/3 89/11/3 96/26/3 99/27/3
f 95/11/6 94/28/6 101/29/6 102/26/6
f 75/1/1 85/6/1 95/30/1 90/22/1
f 81/7/2 82/2/2 92/23/2 93/31/2
f 85/10/6 87/21/6 94/28/6 95/11/6
f 79/1/4 81/7/4 93/31/4 91/22/4
f 87/6/4 79/1/4 91/22/4 94/30/4
f 96/16/7 97/15/7 104/32/7 103/33/7
f 100/18/8 99/17/8 106/34/8 107/35/8
f 90/22/1 95/30/1 102/36/1 97/37/1
f 91/22/4 93/31/4 100/38/4 98/37/4
f 93/31/2 92/23/2 99/39/2 100/38/2
f 89/23/1 90/22/1 97/37/1 96/39/1
f 94/30/4 91/22/4 98/37/4 101/36/4
f 103/33/9 104/32/9 105/40/9 107/35/9 106/34/9
f 105/40/9 104/32/9 109/41/9 108/42/9
f 101/24/10 98/19/10 105/40/10 108/42/10
f 102/26/11 101/29/11 108/43/11 109/44/11
f 99/27/12 96/26/12 103/44/12 106/45/12
f 97/15/7 102/25/7 109/41/7 104/32/7
f 98/19/10 100/18/10 107/35/10 105/40/10
f 114/50/1 116/51/1 117/52/1 115/53/1
f 114/50/1 115/53/1 125/54/1 124/55/1
f 122/52/13 121/51/13 120/56/13 123/57/13
f 116/58/5 114/59/5 118/60/5 120/61/5 121/62/5
f 118/50/4 119/53/4 123/57/4 120/56/4
f 117/63/6 116/64/6 121/65/6 122/66/6
f 125/54/1 115/53/1 128/67/1 133/68/1
f 124/64/3 125/63/3 127/69/3 126/70/3
f 118/60/5 114/59/5 124/71/5 126/72/5
f 119/53/4 118/50/4 126/55/4 127/54/4
f 117/63/6 122/66/6 132/73/6 129/74/6
f 132/75/13 131/76/13 138/77/13 139/78/13
f 129/74/6 132/73/6 139/79/6 136/80/6
f 127/69/3 125/63/3 133/74/3 134/81/3
f 115/53/1 117/52/1 129/75/1 128/67/1
f 123/57/4 119/53/4 130/67/4 131/76/4
f 119/53/4 127/54/4 134/68/4 130/67/4
f 122/52/13 123/57/13 131/76/13 132/75/13
f 136/80/11 139/79/11 146/82/11 143/83/11
f 140/84/7 135/85/7 142/86/7 147/87/7
f 128/67/1 129/75/1 136/78/1 135/88/1
f 130/67/4 134/68/4 141/89/4 137/88/4
f 134/81/3 133/74/3 140/80/3 141/90/3
f 131/76/4 130/67/4 137/88/4 138/77/4
f 133/68/1 128/67/1 135/88/1 140/89/1
f 142/86/9 143/91/9 146/92/9 145/93/9 144/94/9
f 142/86/9 144/94/9 148/95/9 147/87/9
f 139/96/15 138/97/15 145/93/15 146/92/15
f 135/85/7 136/98/7 143/91/7 142/86/7
f 137/99/10 141/100/10 148/95/10 144/94/10
f 141/90/12 140/80/12 147/83/12 148/101/12
f 138/97/10 137/99/10 144/94/10 145/93/10
f 149/1/1 151/2/1 152/3/1 150/4/1
f 149/1/1 150/4/1 160/5/1 159/6/1
f 157/3/2 156/2/2 155/7/2 158/8/2
f 156/9/3 151/10/3 163/11/3 166/12/3
f 153/1/4 154/4/4 158/8/4 155/7/4
f 152/13/3 151/10/3 156/9/3 157/14/3
f 150/15/5 152/16/5 157/17/5 158/18/5 154/19/5
f 159/10/6 160/13/6 162/20/6 161/21/6
f 151/2/1 149/1/1 164/22/1 163/23/1
f 154/4/4 153/1/4 161/6/4 162/5/4
f 150/15/5 154/19/5 162/24/5 160/25/5
f 166/12/3 163/11/3 170/26/3 173/27/3
f 169/11/6 168/28/6 175/29/6 176/26/6
f 149/1/1 159/6/1 169/30/1 164/22/1
f 155/7/2 156/2/2 166/23/2 167/31/2
f 159/10/6 161/21/6 168/28/6 169/11/6
f 153/1/4 155/7/4 167/31/4 165/22/4
f 161/6/4 153/1/4 165/22/4 168/30/4
f 170/16/7 171/15/7 178/32/7 177/33/7
f 174/18/8 173/17/8 180/34/8 181/35/8
f 164/22/1 169/30/1 176/36/1 171/37/1
f 165/22/4 167/31/4 174/38/4 172/37/4
f 167/31/2 166/23/2 173/39/2 174/38/2
f 163/23/1 164/22/1 171/37/1 170/39/1
f 168/30/4 165/22/4 172/37/4 175/36/4
f 177/33/9 178/32/9 179/40/9 181/35/9 180/34/9
f 179/40/9 178/32/9 183/41/9 182/42/9
f 175/24/10 172/19/10 179/40/10 182/42/10
f 176/26/11 175/29/11 182/43/11 183/44/11
f 173/27/12 170/26/12 177/44/12 180/45/12
f 171/15/7 176/25/7 183/41/7 178/32/7
f 172/19/10 174/18/10 181/35/10 179/40/10
f 188/50/1 190/51/1 191/52/1 189/53/1
f 188/50/1 189/53/1 199/54/1 198/55/1
f 196/52/13 195/51/13 194/56/13 197/57/13
f 190/58/5 188/59/5 192/60/5 194/61/5 195/62/5
f 192/50/4 193/53/4 197/57/4 194/56/4
f 191/63/6 190/64/6 195/65/6 196/66/6
f 199/54/1 189/53/1 202/67/1 207/68/1
f 198/64/3 199/63/3 201/69/3 200/70/3
f 192/60/5 188/59/5 198/71/5 200/72/5
f 193/53/4 192/50/4 200/55/4 201/54/4
f 191/63/6 196/66/6 206/73/6 203/74/6
f 206/75/13 205/76/13 212/77/13 213/78/13
f 203/74/6 206/73/6 213/79/6 210/80/6
f 201/69/3 199/63/3 207/74/3 208/81/3
f 189/53/1 191/52/1 203/75/1 202/67/1
f 197/57/4 193/53/4 204/67/4 205/76/4
f 193/53/4 201/54/4 208/68/4 204/67/4
f 196/52/13 197/57/13 205/76/13 206/75/13
f 210/80/11 213/79/11 220/82/11 217/83/11
f 214/84/7 209/85/7 216/86/7 221/87/7
f 202/67/1 203/75/1 210/78/1 209/88/1
f 204/67/4 208/68/4 215/89/4 211/88/4
f 208/81/3 207/74/3 214/80/3 215/90/3
f 205/76/4 204/67/4 211/88/4 212/77/4
f 207/68/1 202/67/1 209/88/1 214/89/1
f 216/86/9 217/91/9 220/92/9 219/93/9 218/94/9
f 216/86/9 218/94/9 222/95/9 221/87/9
f 213/96/16 212/97/16 219/93/16 220/92/16
f 209/85/7 210/98/7 217/91/7 216/86/7
f 211/99/10 215/100/10 222/95/10 218/94/10
f 215/90/12 214/80/12 221/83/12 222/101/12
f 212/97/10 211/99/10 218/94/10 219/93/10
f 223/1/1 225/2/1 226/3/1 224/4/1
f 223/1/1 224/4/1 234/5/1 233/6/1
f 231/3/2 230/2/2 229/7/2 232/8/2
f 230/9/3 225/10/3 237/11/3 240/12/3
f 227/1/4 228/4/4 232/8/4 229/7/4
f 226/13/3 225/10/3 230/9/3 231/14/3
f 224/15/5 226/16/5 231/17/5 232/18/5 228/19/5
f 233/10/6 234/13/6 236/20/6 235/21/6
f 225/2/1 223/1/1 238/22/1 237/23/1
f 228/4/4 227/1/4 235/6/4 236/5/4
f 224/15/5 228/19/5 236/24/5 234/25/5
f 240/12/3 237/11/3 244/26/3 247/27/3
f 243/11/6 242/28/6 249/29/6 250/26/6
f 223/1/1 233/6/1 243/30/1 238/22/1
f 229/7/2 230/2/2 240/23/2 241/31/2
f 233/10/6 235/21/6 242/28/6 243/11/6
f 227/1/4 229/7/4 241/31/4 239/22/4
f 235/6/4 227/1/4 239/22/4 242/30/4
f 244/16/7 245/15/7 252/32/7 251/33/7
f 248/18/8 247/17/8 254/34/8 255/35/8
f 238/22/1 243/30/1 250/36/1 245/37/1
f 239/22/4 241/31/4 248/38/4 246/37/4
f 241/31/2 240/23/2 247/39/2 248/38/2
f 237/23/1 238/22/1 245/37/1 244/39/1
f 242/30/4 239/22/4 246/37/4 249/36/4
f 251/33/9 252/32/9 253/40/9 255/35/9 254/34/9
f 253/40/9 252/32/9 257/41/9 256/42/9
f 249/24/10 246/19/10 253/40/10 256/42/10
f 250/26/11 249/29/11 256/43/11 257/44/11
f 247/27/12 244/26/12 251/44/12 254/45/12
f 245/15/7 250/25/7 257/41/7 252/32/7
f 246/19/10 248/18/10 255/35/10 253/40/10
f 262/50/1 264/51/1 265/52/1 263/53/1
f 262/50/1 263/53/1 273/54/1 272/55/1
f 270/52/13 269/51/13 268/56/13 271/57/13
f 264/58/5 262/59/5 266/60/5 268/61/5 269/62/5
f 266/50/4 267/53/4 271/57/4 268/56/4
f 265/63/6 264/64/6 269/65/6 270/66/6
f 273/54/1 263/53/1 276/67/1 281/68/1
f 272/64/3 273/63/3 275/69/3 274/70/3
f 266/60/5 262/59/5 272/71/5 274/72/5
f 267/53/4 266/50/4 274/55/4 275/54/4
f 265/63/6 270/66/6 280/73/6 277/74/6
f 280/75/13 279/76/13 286/77/13 287/78/13
f 277/74/6 280/73/6 287/79/6 284/80/6
f 275/69/3 273/63/3 281/74/3 282/81/3
f 263/53/1 265/52/1 277/75/1 276/67/1
f 271/57/4 267/53/4 278/67/4 279/76/4
f 267/53/4 275/54/4 282/68/4 278/67/4
f 270/52/13 271/57/13 279/76/13 280/75/13
f 284/80/11 287/79/11 294/82/11 291/83/11
f 288/84/7 283/85/7 290/86/7 295/87/7
f 276/67/1 277/75/1 284/78/1 283/88/1
f 278/67/4 282/68/4 289/89/4 285/88/4
f 282/81/3 281/74/3 288/80/3 289/90/3
f 279/76/4 278/67/4 285/88/4 286/77/4
f 281/68/1 276/67/1 283/88/1 288/89/1
f 290/86/9 291/91/9 294/92/9 293/93/9 292/94/9
f 290/86/9 292/94/9 296/95/9 295/87/9
f 287/96/16 286/97/16 293/93/16 294/92/16
f 283/85/7 284/98/7 291/91/7 290/86/7
f 285/99/10 289/100/10 296/95/10 292/94/10
f 289/90/12 288/80/12 295/83/12 296/101/12
f 286/97/10 285/99/10 292/94/10 293/93/10
f 297/1/1 299/2/1 300/3/1 298/4/1
f 297/1/1 298/4/1 308/5/1 307/6/1
f 305/3/2 304/2/2 303/7/2 306/8/2
f 304/9/3 299/10/3 311/11/3 314/12/3
f 301/1/4 302/4/4 306/8/4 303/7/4
f 300/13/3 299/10/3 304/9/3 305/14/3
f 298/15/5 300/16/5 305/17/5 306/18/5 302/19/5
f 307/10/6 308/13/6 310/20/6 309/21/6
f 299/2/1 297/1/1 312/22/1 311/23/1
f 302/4/4 301/1/4 309/6/4 310/5/4
f 298/15/5 302/19/5 310/24/5 308/25/5
f 314/12/3 311/11/3 318/26/3 321/27/3
f 317/11/6 316/28/6 323/29/6 324/26/6
f 297/1/1 307/6/1 317/30/1 312/22/1
f 303/7/2 304/2/2 314/23/2 315/31/2
f 307/10/6 309/21/6 316/28/6 317/11/6
f 301/1/4 303/7/4 315/31/4 313/22/4
f 309/6/4 301/1/4 313/22/4 316/30/4
f 318/16/7 319/15/7 326/32/7 325/33/7
f 322/18/8 321/17/8 328/34/8 329/35/8
f 312/22/1 317/30/1 324/36/1 319/37/1
f 313/22/4 315/31/4 322/38/4 320/37/4
f 315/31/2 314/23/2 321/39/2 322/38/2
f 311/23/1 312/22/1 319/37/1 318/39/1
f 316/30/4 313/22/4 320/37/4 323/36/4
f 325/33/9 326/32/9 327/40/9 329/35/9 328/34/9
f 327/40/9 326/32/9 331/41/9 330/42/9
f 323/24/10 320/19/10 327/40/10 330/42/10
f 324/26/11 323/29/11 330/43/11 331/44/11
f 321/27/12 318/26/12 325/44/12 328/45/12
f 319/15/7 324/25/7 331/41/7 326/32/7
f 320/19/10 322/18/10 329/35/10 327/40/10
f 336/50/1 338/51/1 339/52/1 337/53/1
f 336/50/1 337/53/1 347/54/1 346/55/1
f 344/52/13 343/51/13 342/56/13 345/57/13
f 338/58/5 336/59/5 340/60/5 342/61/5 343/62/5
f 340/50/4 341/53/4 345/57/4 342/56/4
f 339/63/6 338/64/6 343/65/6 344/66/6
f 347/54/1 337/53/1 350/67/1 355/68/1
f 346/64/3 347/63/3 349/69/3 348/70/3
f 340/60/5 336/59/5 346/71/5 348/72/5
f 341/53/4 340/50/4 348/55/4 349/54/4
f 339/63/6 344/66/6 354/73/6 351/74/6
f 354/75/13 353/76/13 360/77/13 361/78/13
f 351/74/6 354/73/6 361/79/6 358/80/6
f 349/69/3 347/63/3 355/74/3 356/81/3
f 337/53/1 339/52/1 351/75/1 350/67/1
f 345/57/4 341/53/4 352/67/4 353/76/4
f 341/53/4 349/54/4 356/68/4 352/67/4
f 344/52/13 345/57/13 353/76/13 354/75/13
f 358/80/11 361/79/11 368/82/11 365/83/11
f 362/84/7 357/85/7 364/86/7 369/87/7
f 350/67/1 351/75/1 358/78/1 357/88/1
f 352/67/4 356/68/4 363/89/4 359/88/4
f 356/81/3 355/74/3 362/80/3 363/90/3
f 353/76/4 352/67/4 359/88/4 360/77/4
f 355/68/1 350/67/1 357/88/1 362/89/1
f 364/86/9 365/91/9 368/92/9 367/93/9 366/94/9
f 364/86/9 366/94/9 370/95/9 369/87/9
f 361/96/16 360/97/16 367/93/16 368/92/16
f 357/85/7 358/98/7 365/91/7 364/86/7
f 359/99/10 363/100/10 370/95/10 366/94/10
f 363/90/12 362/80/12 369/83/12 370/101/12
f 360/97/10 359/99/10 366/94/10 367/93/10
usemtl 8K_Brand_new_road
f 36/46/4 37/47/4 39/48/4 38/49/4
f 110/46/4 111/47/4 113/48/4 112/49/4
f 184/46/4 185/47/4 187/48/4 186/49/4
f 258/46/4 259/47/4 261/48/4 260/49/4
f 332/46/4 333/47/4 335/48/4 334/49/4
